<svg xmlns="http://www.w3.org/2000/svg" viewBox="0 0 257.71 66.91"><defs><style>.cls-1,.cls-2{fill:#231815;}.cls-1{fill-rule:evenodd;}.cls-3{fill:none;}.cls-4{fill:#00abeb;}.cls-5{fill:#ee7800;}</style></defs><title>logo</title><g id="レイヤー_2" data-name="レイヤー 2"><g id="レイヤー_1-2" data-name="レイヤー 1"><path class="cls-1" d="M103.71,10.57s.08.06.08.11,0,0-.08,0Zm1.86,0s0,0,0,.08v.07l.07,0c0-.09,0-.08.08-.08Zm.22-.22v.15l0-.15Zm.93-.33v0Zm2.74-1.8s-.07.11,0,.11ZM106.56.36l.21.16c.32.22.26.27.13.62l0,.25a2.66,2.66,0,0,0-.1.49c.31,0,.61,0,.93,0s.39.08.59.08a1.61,1.61,0,0,1,.94-.14,1.42,1.42,0,0,1,.33.36c-.31.22-1.8.22-1.9.37a5.57,5.57,0,0,0,.58,1.22c.1.12.27.19.34.31a.49.49,0,0,1-.27.49.36.36,0,0,1-.3-.08,1.79,1.79,0,0,1-.25-.42c-.15-.28-.32-.55-.45-.83s-.15-.6-.4-.67c0,0-.22-.09-.22,0a.13.13,0,0,0-.07.12.51.51,0,0,0-.26-.12A3.65,3.65,0,0,1,105.12,4a.75.75,0,0,1-.35.16,1.2,1.2,0,0,1,.25-.52l.19-.35.18-.25.16-.42c.09-.17.25-.29.34-.46l.35-.78A6.86,6.86,0,0,1,106.56.36ZM110.71.3a.68.68,0,0,1,.27.21l.17.13c.24.26.19.6.19,1a3.76,3.76,0,0,0,.67,0l.33,0c.1-.09.41-.07.56-.07s.33,0,.33,0a.48.48,0,0,0,.18.07c.16-.21.86-.07,1.15-.07s.64.46.43.61-.6,0-.77-.05l-.3.06a3.39,3.39,0,0,1-.55,0c-.05,0-.08-.06-.14-.06s-.3.1-.3,0l0-.07a.89.89,0,0,0,0,.33l.08-.11,0,.07c0,.08,0,.3-.12.3v.07c.11.13-.11.42-.11.63-.07,0-.09-.07-.15-.07s0,.07-.07.07l.11,0c-.09.13-.19.19-.19.37-.08,0-.07,0-.07,0s-.05-.08-.11-.08l-.08.26s-.09-.07-.15-.07c0,.33-.18.42-.42.59,0,0-.07.11-.13.11a2.12,2.12,0,0,1-.45.07.64.64,0,0,1-.36.17c-.44.11-.47.34-.52.75,0,.1-.08.14-.09.23s.08,0,.08,0,0,0,.07,0v.08a3.13,3.13,0,0,1,0,.44c.07,0,.29,0,.29-.07a1.22,1.22,0,0,0,.56.11,1.34,1.34,0,0,1,.41,0h.18c.11-.08.63.09.63-.07.44,0,.86-.11,1.3-.11.07,0,.37,0,.37-.07l.37,0h.15s.11-.12.11,0h.08a1.78,1.78,0,0,1,.1.67c.08,0,.23,0,.23.07a6.41,6.41,0,0,1-.93.15s-.08-.09-.07-.15c-.32.26-.42.18-.78.18-.08.09-.56.23-.56.15s-.3,0-.3.07a1.66,1.66,0,0,0-.55-.15c-.14,0-.93.13-.93,0l-.22.07c-.07,0-.3,0-.3,0-.29.27.23.72.38.91a3.65,3.65,0,0,0,.59.71,4.22,4.22,0,0,1,.61.73,3.32,3.32,0,0,0,.77.64,5.57,5.57,0,0,0,.88.58l.61.16c.35.1.68.22,1,.32l.63.17c.25.16,0,.47-.19.47,0-.06-.11-.12-.11-.19a.55.55,0,0,1-.26,0c0,.06.07.11,0,.11s-.07,0-.07,0H115s-.11.16-.11.07h-.08c0-.06.08-.08.08-.15s-.34,0-.34-.07l-.07,0,0,.11a2.87,2.87,0,0,1-.7-.17c-.13,0-.28,0-.4-.06a10,10,0,0,1-1.64-1.23l-.7-.8L111,9.2c-.19-.22-.52-.34-.59-.65,0-.05,0-.14,0-.14-.21-.21-.32-.48-.63-.48a1.5,1.5,0,0,1-.17.46,12.2,12.2,0,0,1-1.5,1.79c-.1.08-.74.43-.74.52l-.15-.08c-.07,0-.1.1-.17.14l-.45.12a2.07,2.07,0,0,1-.68.19c-.12,0-.15-.16-.26-.16v.23h-.11c-.23-.32-1,.22-1.42-.25,0,0-.06-.09-.13-.09s-.08.11-.15.11-.06-.11,0-.11.29-.23.41-.22l0,.07c-.07,0-.09.11-.15.11l0,.07h.07c.12-.13.17-.32.37-.25,0,0,.08,0,.08.07l0-.18.29,0c0-.08,0-.14.08-.14s.29-.14.45-.14l.18,0a1.2,1.2,0,0,1,.52-.15h.07c0,.06-.06.22,0,.22l.14-.26c.16-.17.44-.17.65-.23,0,0,.1,0,.1-.06h.08s0,.07,0,.07l.26-.4a5.2,5.2,0,0,1,.44-.38c.1-.1.15-.25.24-.36s.21-.19.3-.31a6,6,0,0,0,.49-1s.09-.23,0-.23l-.11,0,0,.14c-.12,0-.37,0-.37.19h-.36L108,7.4a.48.48,0,0,0-.08.19c-.06,0-.44-.07-.44,0s-.11,0-.11.07-.09-.08-.15-.08a.36.36,0,0,1-.23.11h-.4c-.4,0-.78.08-1.19.1-.16,0-.3.08-.48.1s-.26,0-.26,0a.44.44,0,0,1-.16-.72l.29-.14s.1,0,.1,0,.07,0,.07-.07a3.27,3.27,0,0,0,.71,0L106,7a1.49,1.49,0,0,1,.7,0l.19,0a2,2,0,0,1,1.36-.24s.08,0,.08,0h.08c0-.28.53-.27.77-.29s.08,0,.08,0,.11,0,.11.07c.07-.2.2-1,0-1.07a1.51,1.51,0,0,0-.7.13l-.51.09s-.08,0-.08.07-.22-.07-.22,0a1.14,1.14,0,0,1-.19-.26s-.18,0-.18-.11.07,0,.07,0,.1-.22.15-.22S108,4.92,108,5l.07,0V4.85c.39,0,.43-.15.74-.25l.36-.07.27-.1c.08,0,.12.05.18.05a.24.24,0,0,1,.26-.14c.07,0,.12,0,.19,0,.17-.36.85-.36.85-.77.08,0,.37.12.37.22.08-.06.11,0,.11-.11l.08,0c0,.07,0,.18.14.18l0-.4s.11,0,.11-.08c.09-.39.38-.65.47-1,0-.05,0-.1,0-.11l-.07,0c-.18.2-1.22-.06-1.22.22s-.52.54-.52.55c-.1.2-.14.19-.31.15s-.21,0-.21,0a2.1,2.1,0,0,1,.15-.52,4.63,4.63,0,0,0,.68-1.52C110.79.82,110.61.61,110.71.3Z"/><path class="cls-1" d="M154.5,11.05c0,.07-.11.17-.11.26s.22,0,.22,0A.24.24,0,0,0,154.5,11.05ZM152,10.74l.07.3A.45.45,0,0,1,152,10.74Zm-2.4-1.6h.07v.19l-.11,0A.64.64,0,0,0,149.62,9.14Zm2.22-.58s0,.11,0,.11Zm-2-.68,0,.19Zm2.44-.54c0,.15.11.26.11.4A.39.39,0,0,0,152.25,7.34Zm0-.26s.11.11.11.18l.07-.18ZM151,6.59s0,.07-.08.07,0,.26,0,.26S151,6.69,151,6.59Zm-.85-.26,0,.07Zm.78-1.78v.19c.08-.06.11-.06.11-.11Zm-1.4-1.26,0,.11h.08l.07-.11Zm4.37-.69v.11h.08V2.6Zm-3.37-1.2s0,0,0,.08-.09,0,0,0Zm1.93-.4v.07a3.3,3.3,0,0,1-.63.2l-.29,0c-.46,0-.91.08-1.37.14-.25,0-.44.19-.71.19,0,.31-.16.66,0,.93,0,.09.22.1.32.11l.44-.05,1,.09c.06,0,.26,0,.26,0l.11,0h.07c0,.05.05.11.11.11a.93.93,0,0,1,.49-.11s0,.08.11.08l-.15.41c0,.06-.22.07-.29.09l-.34.17a1.12,1.12,0,0,1-.41,0,.46.46,0,0,1-.08-.19l-.07,0c-.11.29-.56,0-.56.18s0,0-.07,0l0-.15c-.13.22-.46.26-.7.26l-.19,0v.07a1.55,1.55,0,0,0,0,.44l-.07.41a.31.31,0,0,0,.15.08c0-.07.11-.09.11-.15a3,3,0,0,0,.52,0c.11-.06.78-.14.78-.22l.3,0,.07,0h.07c.06-.05.3-.14.3-.08s.22.17.22.08.1.07.15.07,0-.11.08-.11c.23.07.68.21.65.52,0,.06,0,.22-.06.22s0-.13,0-.26-.07,0-.07,0h-.08c0,.1-.08.34-.22.33l-.08-.22h-.07c-.07.13-.33.14-.33.15a.76.76,0,0,1-.26,0l0,.15a.89.89,0,0,0-.33,0c-.15,0-.31.1-.47,0a1.11,1.11,0,0,1-.43,0l-.45.06-.21,0-.19,0c-.05,0-.07,0-.07,0l0,.11s.15.08.15.15l-.15,0a1.07,1.07,0,0,1,.1.4c0,.06-.18.34-.1.34v.07a3.33,3.33,0,0,1,.63,0c.13-.12.44-.07.63-.07l.26,0a4.59,4.59,0,0,1,.74,0c.26,0,.49-.18.74-.18a.82.82,0,0,0,.34-.15c.14,0,.43,0,.52-.13s.07-.59.08-.87l.14-1.29,0-1c0-.39,0-.79,0-1.19a.47.47,0,0,0,0-.29,2.32,2.32,0,0,0-.66,0C152.68,1,152.55,1,152.42,1Zm-.63-.41V.66s.08,0,.08-.07Zm-.37,0V.7h.08Zm1.89-.11,0,.12ZM152.05.26a1,1,0,0,1,.52.15c.12-.06.63-.11.63.07a.51.51,0,0,1,.38,0,2.71,2.71,0,0,1,.6.74,1.56,1.56,0,0,1-.05.44l0,.41-.07.62c0,.06,0,.15-.09.15s.1.11,0,.11S154,3,154,3a1.66,1.66,0,0,1,.07.47l.08.45c-.07,0-.1.08-.15.08l.07.16a1.42,1.42,0,0,1,0,.46l0,.49s0,.07,0,.07-.11,0-.11.08c.21.3,0,1.05,0,1.4l0,.4c0,.12-.21.2-.21.34a.61.61,0,0,1-.29-.11,1.84,1.84,0,0,1-.3-.74l-.25.15c-.18.09-.45.09-.45.37l.18.13a.67.67,0,0,1,0,.28,3.79,3.79,0,0,1-.05.58,3.17,3.17,0,0,0-.14.57c0,.12.09.18.09.29h-.12c.07.09.23.21.23.33s-.15-.06-.15,0a1.87,1.87,0,0,0,0,.41c.08.06.14.1.14.19s-.18.1-.11.1V10l.15,0a2.13,2.13,0,0,0,0,.49c.19.36.86.33,1.25.33l.34,0c.17-.09.42,0,.63,0s.3-.06.48-.06l.58-.17a5.28,5.28,0,0,0,.69-.29A.74.74,0,0,0,157,10c.19-.26-.12-1.42.19-1.42l.11.37c.05,0,.15-.06.15,0l0,.22.15,0a1.69,1.69,0,0,0,.08.34l0,.55.07,0a.52.52,0,0,0,.11-.26c.05.06,0,.41,0,.41v.07c-.07,0-.44,0-.44.07s.07.09.07.15-.26.18-.26.26a.4.4,0,0,0-.18-.07l0,.14a.44.44,0,0,1-.15-.26,1.22,1.22,0,0,0-.07.38c-.09,0-.34.06-.34-.08h-.07c0,.13-.08.15-.22.15s-.08.26-.19.26-.08-.15-.15-.15l0,.18c-.06-.08,0-.15-.11-.15-.43.35-.36,0-.66,0,0,.06,0,.19,0,.19s-.14.11-.22.11a.85.85,0,0,0-.41-.15s0,.15-.07.15l-.08,0c0-.09-.07-.19-.18-.19s-.05.22-.15.22v-.33s0,0-.08,0-.11.06-.11.11h-.11l0-.15h-.12v.11l.15,0-.07,0c-.06,0-.12.11-.19.11v-.34h-.07l-.08.37h-.07a.79.79,0,0,1-.07-.22s0,.08-.08.07-.07-.18-.15-.18l-.07.15h-.07c0-.09,0-.41-.11-.41h-.08c0,.06.07.26,0,.26s-.22-.29-.33-.45-.21-.2-.27-.34,0-.42-.11-.53l-.06,0,.07-.26c.09,0,.08-.42.08-.52-.26-.22,0-.57,0-.86V7.82H152c0-.06,0-.08,0-.08s-.07-.07-.12-.07c.1-.27,0-.44,0-.67-.08,0-.13,0-.19,0s0-.23,0-.23v.08l-.15,0,0-.11c0,.06,0,.12,0,.19h-.11c0-.08-.08-.15-.15-.15-.05.23-.79.25-1,.25,0,0-.07,0-.07,0s-.07.19,0,.19.29.21.29.4c-.2.21-.07.3-.07.52-.06,0-.08,0-.08,0s0-.15-.07-.15L150,8v.11c.13.17-.07.67-.26.67l0-.11c-.06.05-.15.22-.22.22l0,.11c.06,0,.05-.07.11-.07h.08c0,.08,0,.07-.08.07a3.08,3.08,0,0,0-.24.27l-.16.29s-.12,0-.12.07a.56.56,0,0,0-.07.26L149,9.77h-.07l-.15.37,0-.08s0,0,0-.07l.11,0c-.05,0-.08,0-.08-.07h-.07a1.47,1.47,0,0,0-.11.48,1.29,1.29,0,0,0-.41-.08c.07.07.15.14.15.23a2.16,2.16,0,0,1-.45,0l0,.08c.06.42-.29.18-.45.18,0,.13,0,.52-.19.52,0-.18-.07-.31-.07-.44,0,0-.48.75-.48.59a.32.32,0,0,0-.26-.11c0-.13-.07-.38-.22-.38,0-.09,0-.22.07-.22.28-.08.38-.26.61-.37l.31-.12c.12-.09.53-.5.64-.5s.08.07.15.07-.11-.11,0-.11l.31-.18a3.69,3.69,0,0,0,.7-.78l.35-.53a1.63,1.63,0,0,1,.3-.44l.09,0a.36.36,0,0,1-.07-.18l.11-.37.07,0c.06,0,.19,0,.19,0V7a1.17,1.17,0,0,1-.48.15l-.19,0c-.08.12-.55.22-.55.14s-.06-.18-.11-.18-.07-.15-.15-.15,0,.09,0,0a1,1,0,0,1,0-.3c.11-.1.3-.14.34-.3a2.37,2.37,0,0,0-.06-.7,16.92,16.92,0,0,1,.11-2V2.84c0-.33.14-.76,0-1,0-.06-.08-.15-.15-.15,0-.22,0-.46,0-.7l0-.07.3,0,.07,0c0,.06-.1.19,0,.19l0,.11.08,0c0-.06.18-.3.18-.33s.08,0,.08.07l0-.11c.05,0,.08,0,.08,0h.07l.22-.11h.08l0,.26,0-.07L150,.59c.07.05.11.11.18.11a1.29,1.29,0,0,1,1-.25l.52.14c.06-.09.34-.27.34-.3Z"/><path class="cls-1" d="M175.47,11c0,.07.05.11.11.11s0,0,0-.07Zm.33-.15s-.09.08,0,.08a.33.33,0,0,0,.19.11A.38.38,0,0,0,175.8,10.89Zm1.78-.77-.07.26h.07l0-.26ZM174,10l0,.11Zm4.82-.53s0,.08,0,0l.11,0Zm.26-.26s0,.07.07.07S179.08,9.27,179,9.24Zm-3.22-.31a.72.72,0,0,1-.38.13c-.72.16-.59.19-.59.9-.07,0-.09-.07-.15-.07s0,.07,0,.07.15.16.15.26,0,.19.07.19a1.64,1.64,0,0,0,.45,0l.44-.13a2.09,2.09,0,0,1,.67-.2s0-.11.11-.11V9.93C176.3,9.65,176.2,9.16,175.81,8.93Zm.59-.52s.11,0,.11,0,0,0-.07,0Zm-3.25-.68c0,.06-.05.19,0,.19A.4.4,0,0,0,173.15,7.73Zm6.52-.16s0,.08,0,.08ZM175,6.48a.4.4,0,0,0,0,.11Zm.89-.18s0,.11.08.11l.11-.07Zm.34-.07v0Zm1.48-.18c0,.06,0,.26.07.26l.08-.23ZM177,6s0,.21,0,.11V6Zm-2.52-.08V6h.07Zm.22-.15s-.11.11-.11.18.06.08.11.08l.07-.07C174.77,5.86,174.74,5.81,174.67,5.74Zm.41-.11a.24.24,0,0,0-.08.15l.15,0V5.7Zm-.3-.19s.05.11.11.11Zm.56-.22a.39.39,0,0,1-.22.11v.08l.18.17c.07,0,.15-.16.15-.21Zm0-.48c0,.09,0,.3,0,.3v-.3ZM176.73,1c.28,0,.66.09.66.44l.15,0c0,.22.09.19.12.35a.9.9,0,0,1,0,.39c-.06,0-.18,0-.18.07s-.12.22-.19.36l-.08.24c-.13.22-.35.37-.48.57l-.18.35a.31.31,0,0,1-.27.11c0,.07.07.11,0,.11s-.2.29-.41.29c0,.08.12.16.12.23a.38.38,0,0,0-.12.33c-.06,0-.11-.08-.18-.08,0,.19,0,.38,0,.56,0,0-.08,0-.08.07V5.22h-.11a1.22,1.22,0,0,1,0,.34,3.17,3.17,0,0,0,.4.15.5.5,0,0,1,.37-.08c.29-.2.76,0,1.08,0h.33c.15,0,1,.24,1,.38s.26.1.26.23c.07,0,.15-.11.15,0l.11.16c.11.15.15.15.15.36h.07a1.75,1.75,0,0,1,.48,1.44c-.08.07-.14.26-.26.26,0,.09,0,.26.11.26l0,.11c-.07,0-.11-.06-.11-.11h-.07a3.29,3.29,0,0,0,0,.45c-.08,0-.11-.06-.11,0l-.07.18c-.19.11-.32.43-.52.43,0,0-.08,0-.08-.06-.09.15-.2.37-.38.4a.82.82,0,0,0-.28.06l-.2.22c-.18.14-.46.09-.7.09,0,.05.06.15,0,.15s-.59.12-.59.26c-.23-.07-.49.17-.65.31s-.05.09-.13.09l0-.15-.18.22a2,2,0,0,1-.45.08c0-.05,0-.08,0-.08l0-.14h.12c-.08-.1-.11-.19-.19-.19s-.15.06-.15,0l-.07,0c0,.06.15.08.15.14s0,.15,0,.15l-.14-.08c-.06-.05-.08-.18-.16-.18l-.07,0,0,.14a1,1,0,0,1-.33-.63l-.18,0c0-.08.11-.09.11-.15s-.11-.12-.11-.19,0,.1,0,.15-.11.06-.11,0c-.16-.21,0-.63,0-.85l0-.34c0-.16,0-.3,0-.48a1.4,1.4,0,0,1,.71-.29,4,4,0,0,1,.67-.22c.08,0,.4,0,.4-.11s.3.07.3.19l.19,0,.11.26c.23.36.73.6.73,1.08.13,0,.22.13.37.11.56-.07,1.58-1.29,1.69-1.82a1,1,0,0,0-.14-.7c-.06-.1-.14-.26-.28-.26a.36.36,0,0,1-.07-.18c-.25,0-.31-.19-.52-.19l-.07-.29c-.14.06-.24.17-.37.18-.31,0-.46-.15-.68-.18s-.29.06-.29.18-.07,0-.07,0a.31.31,0,0,0-.15-.08l0,.19c-.19-.1-.68.14-.88.17s-.17-.06-.26-.06l0,.29h-.08s0-.11-.07-.11h-.07s0,.22-.08.22l-.07,0,0-.15h-.07c0,.07,0,.22-.15.22s-.18.08-.26.08l-.15,0c-.22.37-.38.18-.71.18,0,.08,0,.37-.11.37s0-.07-.07-.07l-.08,0s.1.15,0,.15a.85.85,0,0,1-.67.44c0,.15-.18.63-.33.63s-.11-.11-.19-.11-.07.09-.07.15L172,8.62c-.06,0-.13.11-.19.11s-.05-.37-.22-.37a1,1,0,0,1,.1-.43c0-.07.24-.24.24-.31s.52-.4.52-.33V7.18a3.84,3.84,0,0,0,1-1c.44-.5.91-.94,1.33-1.45a12.45,12.45,0,0,0,.81-1.31c.1-.18.52-.5.52-.69a2.71,2.71,0,0,0,.37-.51V2.11s-.11,0-.11,0h-.11s-.15.13-.15.18c-.35,0-.34.12-.59.16a3.85,3.85,0,0,1-.59,0l-.48,0c-.06,0-.15,0-.15,0s-.11,0-.11.07-.08,0-.08,0l-.49-.23c-.19-.08-.17-.22-.43-.25-.11-.16-.23-.63,0-.63.38.4.69.17,1.11.36l.07,0h.08l.07,0h.43a3.93,3.93,0,0,0,.94-.44l.15,0c.07,0,.19,0,.19-.11.12.08.37-.16.37-.19A.25.25,0,0,0,176.73,1Z"/><path class="cls-1" d="M217.29,10.93s0,0,0,.07.08,0,.08-.07Zm1.11-.08c0,.06,0,.12,0,.12Zm-4.1-2.42s0,0,0,.08.08,0,.08-.08Zm.33-.37c0,.06,0,.12,0,.12Zm2.19-1.36s0,0,0,.07.07,0,.07-.07Zm-1.73-.78,0,.07s0,0,0-.07Zm.68-5.7c.14.07.39.24.42.41s-.36,1.14-.53,1.14a1,1,0,0,1,0,.26c.05,0,.15.05.15.11l.36,0,.34.07a.2.2,0,0,1,.15-.07.94.94,0,0,1,.48-.11.51.51,0,0,1,.34-.19c.13.2.43.22.52.46s-.7.31-.86.35-.22.14-.22.08-.15-.05-.15-.11c-.37.23-1.21.08-1.49.39a.94.94,0,0,0-.15.32c0,.08-.18.15-.18.25s0,.29-.07.29a4,4,0,0,1-.48.76c0,.06-.16.11-.16.2a2.93,2.93,0,0,1,1.38,1.06l.17.37c0,.07.15.07.15.13l0-.14c.06,0,.22-.12.22,0l.26,0c0-.28.19-.32.43-.4a.83.83,0,0,1,.28-.08v.15h.07c0-.09,0-.18.11-.18a.64.64,0,0,1,.17-.24c.08-.06.5-.15.5-.28,0,0,.09.08.15.08s0-.08,0-.08l0-.07a1.77,1.77,0,0,0,.54-.25c.25-.17.46-.49.8-.49.08.12.4.39.4.52V4.9a2.61,2.61,0,0,0-.31.27l-.64.47-.52.24-.58.33-.21,0a6.32,6.32,0,0,1-1,.77c-.18-.06-.25,0-.36.17s-.19.16-.24.31a2.92,2.92,0,0,0,.08.92V9l.14.27s0,.08.05.08,0,0,0,.07-.19-.1-.19,0-.11.06-.11.12a.2.2,0,0,0-.15-.08c-.05,0-.11.12-.11,0s-.25-.3-.37-.3a4.71,4.71,0,0,0,0-.92,4,4,0,0,0,0-.6s0-.11-.07-.11l-.15.41s-.11-.15-.11-.08a1.14,1.14,0,0,0-.3.56h-.07c0-.05,0-.11-.08-.11l-.07,0,.07.22c-.16.1-.52.29-.52.52a.38.38,0,0,1-.11-.23l0,.12c.14.27-.38,1.1-.07,1.44a3.36,3.36,0,0,0,1.36.44,2.22,2.22,0,0,1,.45.05h.07a3.18,3.18,0,0,0,1.42-.3l.81,0,.29-.09c.22,0,.29.2.41.2-.09.22.11.34.11.55a4.46,4.46,0,0,0-.78.18,1,1,0,0,1-.3-.05l-.37,0a1.76,1.76,0,0,1-.41,0,.8.8,0,0,1-.63.29c-.1,0-.21,0-.28,0s-.09.09-.09,0a.19.19,0,0,1-.11-.15h-.07c-.09.12-.45.21-.45,0h-.07s-.07.2-.07.11l-.16-.1h-.24a.53.53,0,0,1-.38-.2c0-.05-.11-.09-.11-.16h-.11l0,.15a2.55,2.55,0,0,0-.52-.15c0-.14,0-.37-.11-.48s-.21,0-.26-.16a1.4,1.4,0,0,1-.1-.35l-.12-.32a2.25,2.25,0,0,1,0-.58l0-.24.14-.22.08-.25a2.31,2.31,0,0,1,.32-.45l.22-.15c.25-.2.48-.41.74-.6s.3-.27.47-.38S215,7,215,7s.14-.37.26-.37V6.59a1.23,1.23,0,0,1-.17-.41.86.86,0,0,0-.76-.6,2.16,2.16,0,0,0-.91.42c-.34.31-1,1.44-1.52.71a.41.41,0,0,1,0-.45l.32-.3.28-.35c.21-.22.45-.41.65-.65l.39-.61.14-.27c.19-.27.58-.69.58-1,0,0,0,0-.08,0a6.15,6.15,0,0,1-1.59-.08l-.59.13c-.07,0-.22,0-.22,0s-.08.05-.08.11-.07,0-.07,0L211.43,3l-.3,0c-.08-.33.15-.48.41-.48l.26,0,.37-.07.29.05.23.07c.05,0,.11,0,.11,0h.07s.12,0,.12-.07.28,0,.44,0l.33.05.49-.11a1.2,1.2,0,0,0,.43-.13,7.46,7.46,0,0,0,.58-1.13A1.65,1.65,0,0,1,215.77.22Z"/><path class="cls-1" d="M225.18,10.4v0Zm-1.88-.82v0Zm2.48-.44s0,0,0,.07.08,0,.08-.07Zm-2-.27c-.05.3-.15.55-.22.84l-.08.27a5.25,5.25,0,0,0,.56.34c.11-.15.59.11.59-.07h.07l0,.11h0v0c.24-.28.64-.24.66-.7a.87.87,0,0,0,0-.4C225.27,9,225,9,225,9s-.17,0-.26,0,0,.15-.12.15A1.16,1.16,0,0,1,224,9V9H224c0,.08-.05.18-.15.18V9.1h0l0-.19h-.11Zm.52-.36s0,0,0,0,.05.08.11.08Zm-.77-.71a.51.51,0,0,1,.4.52c0-.05.05-.11.11-.11h.15c.08,0,.37-.1.37,0h0c.14-.32.46-.15.7-.15,0,0,0,0,0-.07A1.3,1.3,0,0,1,226,9.36c0,.08,0,.23.08.23-.18.39,0,.71-.46,1,0,0-.09,0-.09.07s-.17.18-.3.18v-.22h0c-.05.11-.18.2-.18.33l-.34.15c0-.06,0-.19-.11-.19h-.07l-.11.26c-.18-.09-.25-.22-.49-.22,0-.06,0-.19,0-.19v0h-.11c-.15.26-.41,0-.57-.13s-.15-.06-.21-.14a1.55,1.55,0,0,1-.25-.59A2.89,2.89,0,0,1,223.49,7.8Z"/><path class="cls-1" d="M202.43,9.92v0Zm1.46-.28s-.09.15,0,.15Zm-.4,0c0,.06-.15.21-.05.21s.15-.13.15-.21Zm-3.6-.44v0Zm6-.21V9.1c.05,0,.1,0,.1-.11Zm-5.2.1c0,.05.08.1.15.1Zm-.71-.34c0,.06.1.12.1.2Zm3.27-.47a.63.63,0,0,1-.4.26s0,0-.05-.07l-.15,0c-.24.18-.21.66.11.73a1.89,1.89,0,0,0,1.06-.2,3.65,3.65,0,0,0,0-.55c0-.06-.07-.1,0-.1V8.27A1.4,1.4,0,0,1,203.21,8.28Zm-.15-.09.05.1Zm.4-.11c0,.07,0,.1,0,.1Zm3.78-.32v0Zm-6.46.12-.05.1c0-.05,0-.05.1-.06Zm1.41-.23.05.25Zm-.06-.31v0ZM199.55,7a1.35,1.35,0,0,1-1,.32c.07.05.1,0,.1.1s-.06.27-.06.4l.1.81a4.71,4.71,0,0,0,.19.45h.15V8.92c.07,0,.15,0,.15,0s.1-.08.1-.15l.2,0c.06-.09.19-.26.3-.26l.26.1L200,8.55c.07,0,.1,0,.1-.06s0,0,0-.1A6.81,6.81,0,0,0,200,7.05.79.79,0,0,0,199.55,7Zm2.62-.1s0,.07,0,.1l.05.1,0-.2Zm1.47-.08a.12.12,0,0,0,0,.11c.06,0,.1,0,.1-.11Zm.15,0V7l-.2,0c-.09,0-.25.11-.25.06a.4.4,0,0,1-.11-.2c-.12.13-.28.46-.34.46a1.42,1.42,0,0,0-.66-.14c.06.14,0,.46.06.45s.09.31.26.3a1.16,1.16,0,0,1,.65-.16c.25-.09.39.09.61.09.07-.18.26-1,.18-1v-.1A.2.2,0,0,1,203.79,6.76Zm-.36-.5c.92.07,1.47.43,1.49,1.44-.07,0-.1,0-.11,0v.1a2.15,2.15,0,0,0-.19.71,1.84,1.84,0,0,0,.06.41l-.16.05c.06.05.16.1.16.2s-.13.1-.2.1c.1,0,.13.1.2.1-.13.15-.12.31-.21.48s-.62.09-.8,0-.09-.06-.09,0c-.2.08-.75.11-.75.42l-.1,0,.14-.45c-.11.11-.34.37-.34.46l0-.15c-.06,0-.08.15-.15.15L202,9.84c-.05-.09,0-.32-.07-.32a4.57,4.57,0,0,1-.31-1c-.08-.54-.07-1.14-.19-1.66a.67.67,0,0,1,.59-.36c.09,0,.2.08.3.06l.41-.12C203,6.35,203.21,6.33,203.43,6.26Zm.48-.92,0,.11s0-.06.1-.06Zm-.45,0v.25h.1ZM207.7,5V5Zm-3.19-.34,0,.1c0-.05,0-.05.1-.06Zm-4.4,0c-.14.06-.85.16-.8.16s-.45.26-.45.16h-.11c0,.32-.06.59-.06.91,0,.1.08.11.08.2h-.15c.09.12.1.35.21.35a2.55,2.55,0,0,1,1.31,0c0-.33,0-.7,0-1.06A3.26,3.26,0,0,0,200.11,4.61Zm5.95-.52c0,.07,0,.15.06.15Zm0-.71a.28.28,0,0,1,.1.2l-.2,0Zm-3.69-.18-.1,0S202.41,3.24,202.41,3.2ZM206,3.08c0,.08.05.2,0,.21Zm-.25,0v.1c.07,0,.1,0,.1-.11Zm-2.93,0,0,.1Zm-.55,0v.1c.06,0,.1,0,.1-.1Zm1.1-.12c0,.07,0,.15.06.15Zm2.27-.4v0Zm0-.25,0,.1s.05,0,.05-.1Zm-1.42-.07.25,0V2.5l0-.1c.05,0,.31.25.2.25.07,0,.21,0,.21.1s-.1,0-.1,0-.16-.1-.26-.1a.43.43,0,0,0,.36.2l0,.1c-.23,0-.48-.19-.66-.19,0,.09.1.13.11.2-.38-.09-.6.13-.92.22h-.34c-.11.08-.17,0-.28,0l-.23.13a2.44,2.44,0,0,1-.54,0c-.52,0-.87,0-.88-.64h.56l.55-.11.5,0a4.44,4.44,0,0,1,.81-.17l.2.05C203.91,2.3,204.09,2.27,204.26,2.21Zm-4.39.08c-.23.1-1.1,0-1.17.3l0,.63c0,.07.12.14,0,.15v.25a.89.89,0,0,0,.82.34c.07-.18.6-.28.6,0l0-.81-.08-.86c-.11.05-.15.08-.15,0ZM203.65,2a.12.12,0,0,1,0,.1s-.12,0,0,0Zm2-.44c0,.08,0,.26.06.26V1.57ZM207.12,1a3.35,3.35,0,0,1,.63.22c.56.36.83,1.12,1.19,1.63,0,.06.05.14.13.14s-.09.19-.17.22a2.09,2.09,0,0,1-.87-.43,5.13,5.13,0,0,1-.44-.7C207.39,1.74,207,1.43,207.12,1ZM204.93.22c.09,0,.1.1.2.1s.1-.1.11,0,.32.24.2.25c.19.15.28.23.33.4s.07,1.21-.1,1.21c.08.07.21.09.21.2l-.15.05c.27.17.16.39.16.6.08,0,.1,0,.15,0s-.18.56,0,.56c-.05,0-.15.12-.15.2l.1-.05c.05,0,.15-.14.16,0s.09.35-.05.35c0,0,0,0,.1,0l.16.5c.32,0,.58-.14.9-.13s.66.41.78.4l.05.1-.21,0c.08.1.08.15.16.15-.25.13-.47,0-.4,0-.11.05-.16.08-.15.16h-.1V5a.25.25,0,0,0-.09.2L207.14,5a1.63,1.63,0,0,1-.22.23c-.12.08-.48-.07-.5.15s.12.14.12.24a.21.21,0,0,0-.09.15c.06.16,0,.36.26.35,0,.07,0,.15-.05.15s0,.26.05.25l-.05-.1h.1c0,.08.05.1,0,.1s.1.15,0,.15c.07,0,.28-.25.19-.25s.09-.16,0-.15.08-.36.15-.36c.23,0,.72.07.77.36,0,.06-.06.24-.06.13.05.1.09.15.16.15l-.1,0-.15.06s0,.05.1.05v.1s.1,0,.1-.11,0,0,0,.1-.2.21-.3.21,0,.1-.05.1l.1,0c0-.08.05-.15.15-.15v.1l-.21.1c.07.08.11.08.11.15s-.28.36-.4.36c0,.12,0,.29,0,.4a6.34,6.34,0,0,0,1.43,2,2.67,2.67,0,0,0,.39-.51h.11v.1l.05.1h-.15v.1l.15,0h.08c0,.19.12,1,0,1a.69.69,0,0,1-.49,0c-.63-.21-1.26-1.19-1.68-1.68-.28-.32-.34-.68-.85-.67l-.05.1h.25s0,.1-.1.1l-.14.41-.1-.2-.05.1-.05.25-.41-.09,0,.15c-.07-.1-.12-.15-.21-.15s-.36-.09-.3-.09,0,0,0,.1-.09-.15,0-.15c.3-.34,1.09-1.25,1.05-1.64a3,3,0,0,0-.31-.77,7.06,7.06,0,0,1-.35-1c0-.09-.19-.45-.11-.45L205,5.17c-.06,0-.15-.08-.15,0s-.05,0-.05.11,0,0,0-.1-.2,0-.2,0a.46.46,0,0,0-.1.25c-.14,0-.3,0-.3.16l0-.2a1.1,1.1,0,0,1-.65.23c-.08,0-.08-.07-.16-.06v.15l-.25,0c.07-.05.15,0,.15-.1s-.1,0-.1,0H203v.1a.42.42,0,0,0-.1.2c-.26-.08-.38.11-.6.12l-.06-.15-.15-.05.1.05c0,.08,0,.16,0,.25s-.36,0-.36,0v-.1l0,.1a1.4,1.4,0,0,1-.85.21c0,.1,0,.36,0,.36s0,0,.1,0,0,.1-.1.1c0,.21,0,.4,0,.6-.05,0,0,0-.1,0,.1.33-.09.76-.09,1.11.07,0,.06.21.06.3a4.17,4.17,0,0,1,0,1.27l.05.25c-.07,0-.15.06-.15.15s.1-.15.1,0,.11,1,.22,1c-.11.1-.25.17-.25.06s0,0-.1,0l-.49-.42c-.17-.19-.14-.9-.15-1.18,0-.08,0-.21-.05-.2a2.51,2.51,0,0,1-1.21.32c-.06.23-.34.2-.47.3s-.33.4-.58.51-.86-.19-1-.48c0-.06-.1-.29,0-.29l.31,0c.22-.28.92-.55,1-.84s-.12-.91-.14-1.34.08-.82.05-1.22c-.06-.8,0-1.57,0-2.38a3.16,3.16,0,0,0,0-1.19c-.18-.36-.58-.15-.83-.15-.05-.05-.58-.44-.41-.45-.05,0-.05,0-.06-.1s.1-.25.2-.25c.42.25.82-.07,1.26-.08a2.76,2.76,0,0,1,1.26-.13c.06,0,.11,0,.1,0s.2-.09.21,0l.45-.16h.4l.3-.06c.45-.16.7.54.87.54l0,.1h-.44l-.41.12c.06.09.3.65.21.65,0,.16.12.81,0,.81.18.34,0,.79-.06,1.15l.09.52.41-.06.3-.06a1,1,0,0,1,.4-.11,4.06,4.06,0,0,1-.48-1.35.47.47,0,0,1,.25-.11c.05.08.16.3.26.3s0-.09,0-.15h.1l.05.25c.19,0,.25.17.29.25s.11.46.28.59.5,0,.6-.11a3.81,3.81,0,0,0,.4-.81c0-.1-.37-.43-.21-.51s1,.36,1,.65c.1,0,.17.25.1.25s0,.2.06.2a2.42,2.42,0,0,0,.6,0,12.5,12.5,0,0,0-.26-2C205,2,205,1.43,204.88.88c0-.08,0-.3-.14-.3s0-.3.19-.31Zm-2.42,0a.82.82,0,0,1,.59.45s.05.09,0,.09c.08.06.26.06.26.15l.19.74c0,.07.13.13.13.21h-.1a1.67,1.67,0,0,1,0,.31c-.12.05-.15.07-.15,0A2.11,2.11,0,0,1,202.51.22Z"/><path class="cls-1" d="M193.24,8.75c0,.05-.05,0-.05.11s.1,0,.1-.11Zm-3.09-.13v.25l.1-.15Zm.49-.37c.07,0,.09.14,0,.15Zm-5.73-2c-.38.19-.77.09-.62.67,0,.12.15.23.15.35l.2,0a3.86,3.86,0,0,1,.76,0c0-.35.08-.6.07-.86S185.1,6.31,184.91,6.29Zm6.18-1v0Zm-4.28-1c-.1.06-.46.11-.45.22s-.12.2,0,.2c0,.16,0,.7.22.7s.83.52.73.53v.1s0,0-.1,0a1.6,1.6,0,0,0-.65.06c-.07,0-.13.12-.21.13l.09.8c.07,0,.11-.1.19-.11l.46,0h.3c0-.1.18-.46.13-.46a6.77,6.77,0,0,0,.33-2.18h-.1A2.53,2.53,0,0,1,186.81,4.3Zm4.9-2.56a1,1,0,0,1,.95.47v.3c-.07,0-.1,0-.1,0s0-.1-.11-.09-.14.1-.15,0c-.14.17-.33.14-.53.22-.8.29-2.52.62-2.57-.66a3.71,3.71,0,0,0,1.52.1,1.84,1.84,0,0,1,.45-.12l.3-.06ZM185.5.56a1.19,1.19,0,0,1,1,1.32,1.17,1.17,0,0,1,.94.11l.34.2v.1a4.26,4.26,0,0,1-1.2.24,2.18,2.18,0,0,0-.16,1.18c.11,0,.25.14.36.13s.23-.11.4-.11v-.1c.55.06,1.53.48,1.53,1.15,0,.08,0,.26,0,.25s1-.08,1,0,.15-.16.25-.16l.35,0,.26,0,.24-.11a.66.66,0,0,1,.35-.16c.09,0,.3,0,.31,0a2.3,2.3,0,0,0,.95-.19,2.7,2.7,0,0,1,1.19-.1c.12,0,.19.25.28.25s.31.31.32.44c-.05,0-.16-.14-.15-.05s.1,0,.1.1l-1,0,0-.15h-.1l0,.2c-.05,0-.13-.09-.2-.09v.2h-.1a3.2,3.2,0,0,0-.8,0c0-.09,0-.26-.11-.25s.06.3,0,.3-.16,0-.15.06l-.11,0,.05-.15c-.11.1-.3.19-.29.26s.12.15.2.15-.08.2,0,.2h.1a5.07,5.07,0,0,0-.09.54c-.12.37-.37.61-.35,1l-.11,0-.06-.2,0,.3-.05.16c.07,0,.1,0,.1,0h-.2c0,.45-.36.75-.36,1.18,0,.06,0,.1.06.1.31-.2.74-.11,1.09-.21s.66-.4,1-.45c.07,0,.17.06.16,0,.32-.28-.47-.72-.34-1.08.31-.24.84.61,1.14.6,0,.08,0,.25.1.25a2.28,2.28,0,0,1,.66,1.34c.19.1.75.88.59.89.07.12.2.34.27.34v.1c-.1,0-.12,0-.2,0s.1.12.1.2-.3.06-.3,0A21.42,21.42,0,0,1,193.5,9a2.48,2.48,0,0,0-.61.06l-.29.17-.64.25c-.05,0-.06,0-.06.08s-.1,0-.1-.09h-.1c0-.1,0-.15-.11-.15s.1.2,0,.2a1.29,1.29,0,0,1-.5.07c-.1.24-.7.3-.7.28-.32-.07-.51.13-.81.2a4.25,4.25,0,0,1-.8.06,1.48,1.48,0,0,1-.33-.69l.4-.17c.67-.25.92-1.28,1.22-1.87a5.43,5.43,0,0,1,.62-1.68v-.1h-.3c-.08,0-.3.17-.3.11l-.35.11-.05-.15c-.06.09-.15.2-.15.11l-.31,0c-.16.27-.52.15-.67.39a1.56,1.56,0,0,0-.08.44c0,.3-.31,1.09-.65,1.18a1.6,1.6,0,0,1-.49,0l-.76.1c-.08,0-.13,0-.17.08a.78.78,0,0,0,0,.48c0,.07,0,.16.1.15l.21.15a1.26,1.26,0,0,1,1.27,0c.05,0,.14,0,.14.12s-.15,0-.15.05.34.14.41.14l-.1.05c0-.05-.1-.07-.1-.15l0,.16s.09.1.16.09V9.2c-.32-.09-1.87,0-1.86.27v1.1l.07.41c0,.06,0,.1.05.1l.11.05c0-.07,0-.1,0-.11a.4.4,0,0,1,0,.41c-.19.34-.76.2-.92-.09a3.39,3.39,0,0,1-.22-1.43c0-.12,0-.28-.14-.3a3.41,3.41,0,0,0-.9.11c-.56.09-1.11.11-1.64.24-.18,0-.22.24-.38.29a.28.28,0,0,1-.25-.11c-.17-.17-.37-.61-.1-.79.09-.06.49,0,.48-.09s.1-.08.11,0a4.1,4.1,0,0,1,.7,0l.2-.1h.15c.1-.08.5-.26.51,0,.2-.24.59-.07.8-.08l-.05-.1h.1c.12-.05.16-.11.25-.11s.14-.72,0-.79c-.48-.21-.8.44-1.3,0a2.7,2.7,0,0,1-.6-1.52l0-.75a4.81,4.81,0,0,1-.2-1.26c0-.07,0-.2.09-.22s.48.17.58.31.06.34.13.34c-.15.3.12.51.13.8l.65-.08c.06,0,.21.09.21,0l.09-.06c.09,0,.41,0,.41,0a3.42,3.42,0,0,0,0-1c-.39,0-.75.13-.94-.23a.24.24,0,0,1,0-.2c.08-.23.87-.14,1-.37l.06-.42a1.43,1.43,0,0,0-.07-.58c-.1-.18-1.14,0-1.37,0-.06,0-.1,0-.1,0s.21,0,.2-.06-.95-.3-.72-.54c.05-.06.18,0,.25,0a2.43,2.43,0,0,0,.85-.06l.66-.05c.12,0,.24-.16.35-.16a3.1,3.1,0,0,1,0-.86Z"/><path class="cls-2" d="M38.4.7A5.11,5.11,0,0,1,39.76,1c.14.07.19.2.31.29s.26.14.28.3a7.89,7.89,0,0,1-1.19,1.21c-.3.23-.82.41-1,.75,0,0,0,.1-.11.1s-.61.47-.88.47v0c.14.13.26.37.44.44H38a7.24,7.24,0,0,1,1.14,0c.07,0,.16,0,.16,0h.1v0s0,0,.1,0v0c.05,0,.06,0,.06-.1l.72.16.41,0,.62.11c.43.11.48.27.74.59,0,0,0,.06,0,.06a.22.22,0,0,1-.17.16,2.42,2.42,0,0,1-.71-.08,4.65,4.65,0,0,1-1.6-.14s-.16-.14-.16,0-.05,0-.05.1l-.27-.11c-.21,0-1.05,0-1.1.17s.22.78.24,1.08c0,.07-.05.15,0,.15a1.49,1.49,0,0,1,.13,1.14,2,2,0,0,1-.08.26.44.44,0,0,1,.21.36c-.09.15,0,.83-.15.83.26.38-.25.72-.17,1.13,0,.06,0,.06,0,.06s-.21.07-.21.16.1.08.1.15H38v.06c-.23,0-.41.38-.64.46a1.25,1.25,0,0,1-.74,0c-.17-.08-.26-.19-.48-.19v-.06c0-.07-.21-.21-.21-.31s-.15.11-.15,0-.06,0-.06-.1-.2,0-.2-.1a4.12,4.12,0,0,1-1.56-1.38.3.3,0,0,0,0-.1s.09,0,.14,0l.59.49.79.43a7,7,0,0,0,.79.49c.07,0,.21.06.21.15s.05,0,.05-.05h.06a2.19,2.19,0,0,0,.78-.95c.27-.65.23-3.9-.32-4.2a1.11,1.11,0,0,0-.72,0c-.2,0-.34.15-.53.2l-.6.09a10,10,0,0,1-2.71.38c-.25,0-1-.11-.84-.51a4.81,4.81,0,0,1,1.26-.23v0c.12,0,.78-.21.78,0,.05,0,.07-.1.15-.1v0c.07,0,.1,0,.1,0s.37-.22.37-.16h0l.41-.15v0c.1,0,.37,0,.37,0s.31-.07.31-.16h0c.08,0,.26,0,.26-.1s.1,0,.1,0H36c0-.07,0-.1.06-.1h.46c.1-.07.36-.08.36-.21a3.31,3.31,0,0,1-.75-.94c0-.08,0-.15.08-.15v0l.31.11V3.44c.08,0,.47-.12.47-.2s.1,0,.1,0h0v0h0v0c.07,0,.05,0,.05,0a10.23,10.23,0,0,1,1.2-1.08c.19-.2.39-.4.58-.61l.09,0V1.37a7.34,7.34,0,0,0-1.91.29c-.82.21-1.93.77-2.8.33-.11-.06-.62-.4-.46-.56s.57.05.71.05.06,0,.06-.16l.4.05.78-.14c.13,0,.29-.17.42-.17S36.71,1,37,1a1.4,1.4,0,0,1,.51-.09Z"/><path class="cls-1" d="M163.52,8.88c0,.06,0,0,.1,0s0,.05-.1.05Zm.64-.45c.06,0,.08.15,0,.15Zm-.4-1,.05.1Zm.35-.2-.05.1s.05,0,.1,0Zm.15-.3c0,.07,0,.15.1.15Zm.15-.05v0Zm1.14-1.59c0,.07,0,.1-.05.1l.15,0Zm-1.84-.54v.15c0-.06,0-.1.1-.1Zm2.49,0,0,.1s0,0,.1,0Zm-1.44-.2s0,0,0,.1.1,0,.1-.1Zm.49-.1c0,.06.07.15.15.15Zm.7-.65c.27,0,.69,0,.69.4h-.19l.29,0v.1c-.16.17-.24.4-.41.58L166,5.2c-.06.07,0,.2-.12.2s-.25.21-.25.35V5.6h-.1l-.15.5s-.15-.14-.15,0a5.26,5.26,0,0,0-.29.45.34.34,0,0,0-.2.19.09.09,0,0,1-.05-.1c-.06.17-.08.6-.3.6v.1c.12,0,.79,0,.79,0a1,1,0,0,1,.45.69,4,4,0,0,1,0,1.09l-.12.4c.13.15.06.35.24.5a4.8,4.8,0,0,0,2.25.3l.39-.1h.45a1.32,1.32,0,0,1,.81,0c.06,0,.11.09.18.09a1.17,1.17,0,0,0-.15.5c-.08,0-.39.18-.39.09s-.1,0-.1-.09a.85.85,0,0,1-.6.24l0-.24c-.42.28-.82.17-1.25.27,0,0-.09.06-.09,0s-.17-.15-.25-.15c-.17.22-.52.05-.75.05l-.24,0c0-.07,0-.19-.05-.19s-.2.19-.2.09-.2,0-.2,0a.29.29,0,0,1,0-.2l-.1.2c-.12-.13-.2-.13-.3-.21a1.57,1.57,0,0,1-.34-.47c0-.06-.1-.09-.1-.17s.1,0,.1,0c-.27-.41-.05-1.05-.05-1.49l.05.15v-.3l-.1-.05c0-.07,0-.25.1-.25l-.1,0c-.22.25-.65.25-.65.64-.06,0-.12-.1-.2-.1s-.22.35-.29.35,0-.12,0-.05l-.24.36-.26.19c-.05,0-.08-.05-.15-.05v.39c-.15,0-.35.07-.35.25l-.05-.15c-.12.13-.14.4-.25.4s.09-.1,0-.1c-.14.23-.59,1-.84,1a.66.66,0,0,0-.25-.05c0-.1,0-.29-.15-.29l-.1.19c-.09-.1-.11-.19-.2-.19s0-.35.1-.35a4.41,4.41,0,0,0,1-1.44,4.39,4.39,0,0,0,1.05-1.28l.3-.43s.18-.13.09-.13l.61-.53.7-1.09A7.28,7.28,0,0,0,165,5c0-.07.15-.24.06-.24v-.1l-.78.22c-.08,0-.19.13-.26.13H164v-.1c.06,0,.1,0,.1-.05s-.1,0-.1.05L163.6,5c-.35.09-.73.09-1.07.17s-.5.24-.79.18c-.13,0-.16-.13-.16-.26a.32.32,0,0,1-.25-.34,4.23,4.23,0,0,1,1.54-.4l.2,0a.62.62,0,0,1,.45-.2v.15h.1c0-.09.12-.25.24-.25a5.36,5.36,0,0,1,1-.05l.54-.15ZM164.06.88c.11,0,.35.05.35.2.28,0,1.54.87,1.45,1.19s-.51.32-.51.35c-.57-.35-1.54-.81-1.54-1.64Z"/><path class="cls-1" d="M138.55,6v.1c.06,0,.11,0,.11-.1Zm-2.72-1.26-.05.11s0,0,.1,0Zm-1.36-.21-.05.11s0,0,.1,0Zm.73-.21,0,.27.11,0c0-.08,0-.16.05-.16Zm5.66-.62.34.12A9.78,9.78,0,0,1,142.74,6c.44.21.31.54.31,1-.07,0-.26-.1-.26,0s0,.11-.1.11a.36.36,0,0,1-.25-.08,12.37,12.37,0,0,1-1-1.4c0-.14.06-.16.06-.3-.28.07-.79-.63-.88-.85V4.13c-.14,0-.25-.21-.16-.21A.71.71,0,0,1,140.86,3.72ZM145,2.83v0Zm-2.62-.63c0,.07-.09.21,0,.21s0-.16.11-.16Zm.32-.16a2.59,2.59,0,0,1,1.42,1.32c0,.12,0,.19,0,.3s.23.11.11.11-.12.15-.21.15V3.77c-.14.1-.21.19-.36.15s-1.22-1.1-1.27-1.18a1.17,1.17,0,0,1-.13-.44c0-.06-.06-.1,0-.1Zm-6.28-.47a.85.85,0,0,1,.37.15.8.8,0,0,1,.11.36,3.75,3.75,0,0,1-.26,1.8l0,.1c.05-.06.08-.11.16-.11l.1,0,.11,0c.16-.06.47,0,.47.21l.1-.21c.09.06.25.21.16.21.08,0,.31-.07.31,0a.68.68,0,0,1,.11.42c.46.17.42.79.42,1.21l0-.16h.1c0,.12,0,.63.06.63-.13.31-.31,2.25-.58,2.25,0,.13-.05.15-.05.26a2.76,2.76,0,0,1-.38.77l-.2.26c-.19.4-.32.81-.76,1,0,0-.13.09-.13,0V11h-.15v-.16h-.11c-.4.38-1-.66-1.1-1a.87.87,0,0,1,0-.45c0-.05.1-.1,0-.1.06-.05.18-.22.25-.16s0,.1,0,.1c.32.14.51.79.84.79l.29-.48.17-.39.39-.67c.28-.63,1.15-3.65-.07-3.81a1.5,1.5,0,0,0-.93.18c-.42.34-.53,1.35-.7,1.87s-.36.75-.47,1.16c-.21.75-.07,1.35-1.14,1.35-.07-.29-.34-.49-.12-.81a.29.29,0,0,1,.23-.13c0-.1-.11-.21,0-.21a7.64,7.64,0,0,1,.31-.73c.12,0,.21,0,.21,0s-.11-.42.1-.42l0-.37A4.34,4.34,0,0,1,135,6c0-.08,0-.16.05-.16h.1c0-.05-.15-.26,0-.26l-.05-.1c.05-.08,0-.06.1-.06s-.15,0-.15-.1.4-.42.21-.42a1,1,0,0,0-.49.12,7,7,0,0,1-1.5.29c-.25,0-.47-.67-.37-.67a2.15,2.15,0,0,1,1-.26c.06,0,.16,0,.16-.11a3.21,3.21,0,0,0,.63-.12l.31,0c.09-.09.57-.06.57-.11s.18-.52.26-.52H136V3.45c-.06,0,0,0,0-.1s.1-.21.21-.21c-.07-.05-.16,0-.16-.1s.11-.11.05-.11l.11-.47.1,0c-.09-.24,0-.17,0-.36H136c.08-.2.09-.29.22-.35Zm7.12-.52a2.31,2.31,0,0,1,2,1.65c0,.07.14.34,0,.34h-.16c-.18.77-1-.6-1.19-.75s-.58-.37-.69-.72c0-.06-.1-.16,0-.16A.41.41,0,0,1,143.53,1.05Z"/><path class="cls-1" d="M129.64,11.31s0,0,0,.1.1,0,.1-.1Zm-5.28-.21-.06.1s0,0,.11,0Zm-3.35-1-.06.16c.06-.08,0-.11.11-.11Zm6.54-.47.31.11c.07-.06,0,0,0-.11.4.29.35.3.53.68.08-.12.08-.16.15-.16.35.2,1.21.89,1.21,1.31-.09.06-.19.21-.32.21,0,.05.11.09.11.16h-.11c-.23,0-.72-.26-.73-.58-.3,0-1.15-.71-1.15-1-.08-.11,0-.23,0-.37s-.16,0-.16-.05S127.5,9.67,127.55,9.63Zm-2-.16c1.08.22-.21,1.32-.53,1.62l-.27.19s-.09.19-.09.08c-.1,0-.09.05-.16.05l-.05-.21c-.19.14-.37.42-.58.42,0-.12,0-.26,0-.26s-.47-.21-.31-.21c.13-.16.84-.5.84-.63s.62-.69.62-.52c0-.1,0-.42.06-.42l.52-.05Zm1.78-.78,0,.21Zm-.84,0c0,.07,0,.15,0,.15Zm-1,0c0,.07,0,.15,0,.15Zm-2.83-.37c.53.23.13,1-.21,1,0-.07-.06-.16-.16-.16.08.11.08.16.16.16a4.42,4.42,0,0,1-.88.58c-.08.06-.18.25-.27.25h-.1l-.16.32c-.08,0-.21-.06-.21-.16h-.11c-.08.28-.44.36-.72.33,0,0,0-.07-.11-.07s-.53.12-.53-.1c.14-.07.37-.32.53-.32s0,.06.1.06-.07-.11,0-.11c.43-.13.69-.57,1.15-.57,0-.13.21-.37.37-.37s.1.09.1,0c-.13-.26.64-.78.89-.78l.16-.06Zm2.46-.21h.11v.11l-.11,0s0,0,0-.11Zm1-.94s0,0,0,.11-.13-.06,0-.06Zm-1.1,0s0,.28,0,.16V7.17Zm2.35-.26h.11C127.49,6.92,127.49,7,127.44,6.91Zm-3-.37s-.1.16,0,.16Zm-1.78,0c.67,0,.75.5.29.91-.14.07-.83.61-.92.61s-.15,0-.26,0l0,.26-.1-.06h-.16c-.13.17-.32.37-.51.34l-.22-.07a.61.61,0,0,1-.42.21c0-.06.09-.16,0-.16-.24.11-.33-.32-.21-.32h.21a4,4,0,0,1,.92-.61l.39-.33.39-.2A3.06,3.06,0,0,0,122.68,6.49Zm4.4-1.1V5.5h.1Zm-.79,0,0,.16ZM122.73,5c.08.06.37.25.37.32s-.2.31-.42.31a1.2,1.2,0,0,1-.89.74c-.11.09-.13.15-.21.15l-.42,0c-.07.07-.26.27-.36.27s-.12-.16-.21-.16l-.11.21c-.08,0-.26,0-.26,0s0,.11,0,.11a1.71,1.71,0,0,0-.32,0L120,7c0-.08-.16-.15,0-.15.09-.15.26-.29.26-.48,0,0,0,0,0,.11a.73.73,0,0,1,.52-.26,1.74,1.74,0,0,1,.72-.47l.44-.3A3.49,3.49,0,0,1,122.73,5Zm1.57-.47.06.11s0,0,0-.11Zm1.94-.78s0,0,0,.1.1,0,.1-.1Zm-.63,0c0,.06,0,.15,0,.15Zm1.57-.06c0,.08,0,.21-.05.21a5.35,5.35,0,0,0-.73-.05l0,.21a3.7,3.7,0,0,0-1.19,0c-.13,0-.21.21-.33.21l.13.42c.06.11.17.1.27.14l.25.15.76,0a1.75,1.75,0,0,1,.69-.1c.09,0,.68-.07.68,0v.15c0,.29-.12.32-.37.32.08.09.21.16.1.16l-.52,0c-.12.15-.68,0-.68.31-.13-.1-.18,0-.31,0s-.26,0-.42,0-.16-.23-.16-.11,0,0,0,.11c-.4,0-.37.71-.37,1a3.56,3.56,0,0,0,.84-.2,5.43,5.43,0,0,1,1-.06,2.71,2.71,0,0,1,1-.1l-.16,0s0,0,.11,0-.09.32.05.32l-.05.1a1.13,1.13,0,0,0-.32,0c-.07.11-.31.22-.31.37-.13-.06-.11,0-.11-.11h-.1s.16-.1,0-.1-.13.21-.21.21a.57.57,0,0,0-.42-.11c0-.1.11-.13.11-.21-.11.1-.13.16-.21.16s0-.09,0-.16c-.12.11-.52.36-.52.21-.23.38-.28.26-.68.26l0,.47c.07.64.71.5,1.23.51.1,0,.26.08.26,0a4,4,0,0,1,1-.11l.31-.05c.08,0,.32,0,.32-.16l0-.68-.13-1.36V4c0-.27-.37-.23-.37-.32l-.42.06Zm-.89-1.1v.11c.07,0,.11,0,.11-.11Zm-4.39,0c.65,0,.91.5.71,1.09-.06.17-.24.35-.24.54h.1l.32-.06c.27-.12.8,0,.8.31l-.07.38a1.76,1.76,0,0,0-.56,0c-.07,0-.11.08-.17.08s-.12-.11-.21-.11a.35.35,0,0,1-.27.11.21.21,0,0,0-.15-.11,1.56,1.56,0,0,1-.28.16c-.16,0-.32,0-.46,0l-.89.1c-.1.05-.83.33-.83.06a.56.56,0,0,1-.37.1,2.49,2.49,0,0,1,.28.74,6.82,6.82,0,0,1-.35,1.83,6.92,6.92,0,0,1-1.37,3.32c-.06,0-.65.36-.65.18-.22-.3.3-.87.43-1.12l.2-.55c0-.07,0-.11.1-.11,0-.32.23-.6.3-.89.17-.74.31-1.45.45-2.19l.1-.58-.12-.42a1.56,1.56,0,0,1-.44.06l-.34-.11,0,.16h-.1c0-.1-.17-.63,0-.63a3.63,3.63,0,0,1,1.46-.32l.17-.12c.11-.17-.28-1-.35-1.15s-.06-.09,0-.09c.72-.62.92.68,1.21.68V4.4c.64-.07,1,0,1.29-.61a1.37,1.37,0,0,0,.21-.55l-.14-.57ZM123.83,2,124,2v.11h-.11Zm3.35-.26-.05.1s0-.05.1-.05Zm1.62-.63c.15,0,.63,0,.63.16h.11V1.15a.56.56,0,0,1,.42.47,3.34,3.34,0,0,1-1.78.4c-.3,0-.63-.08-1-.08.08.05.11,0,.11.1L127.08,2a1,1,0,0,1,0,.78.65.65,0,0,0-.16.32H127c.31-.08,1.51,0,1.51.26a.88.88,0,0,1,.33.53c.07.29-.06.52-.06.77l.06.53,0,1.52,0,.26,0,.32c0,.09.13.22.13.31-.09.3.24,1.15-.26,1.15l0,.1c0,.14-.06.24-.06.37-.21-.2-.39-.16-.68-.16,0-.13,0-.2,0-.31l-.1.26a.19.19,0,0,1-.05-.16c-.16.05-.31.21-.48.21V8.9l-.1,0c0,.06,0,.16-.1.16-.24-.1-.4.05-.63.05,0-.06-.07-.16-.16-.16s-.94.18-.94-.1a.75.75,0,0,1-.63.47l0-.21c-.11.09-.21.13-.21.21h-.1c-.12-.21-.32-.37-.32-.63.28-.27,0-1.41.27-1.41a.23.23,0,0,0-.16-.11c0-.26,0-.48,0-.73l.08-.89a4,4,0,0,1-.06-1c.06-.09.08-.07,0-.07s.16-.57.16-.42c0-.06,0-.15.1-.15-.07,0-.16,0-.16-.11h.11a.75.75,0,0,1,.73-.47s0,0,.11,0,.41-.06.41-.16.33-.83.53-.83,0-.1,0-.16.08.11.16.11c-.25-.48-1.68,0-2.19-.08-.06,0-.12,0-.12-.08s-.09-.52-.21-.52v.26c-.07,0-.1,0-.1-.06s-.14-.1,0-.1V1.62l.26-.05c.11,0,.63,0,.63-.1l1.62-.15c.12,0,.1.06.1,0a5.5,5.5,0,0,1,1-.05l1.25-.06.21-.05ZM120.33,0c.18,0,.62.05.62.31a3.81,3.81,0,0,1,.74,1.31c.31,0,1.63-.18,1.31.45-.19.36-2.63.29-3.15.29-.13.1-.24.05-.41.09a1,1,0,0,1-.36.07c-.23,0-.27-.48-.43-.48a.67.67,0,0,1,.58-.21l1-.15c.19,0,.58.06.58,0s.1-.08.1-.16C120.64,1.22,120,.43,120.33,0Z"/><path class="cls-1" d="M100.47,8.22l.2,0,0,.1c-.06,0-.1,0-.1-.1ZM92.29,6.56c0,.07,0,.2.1.2Zm7.73-.9v.1c.06,0,.1,0,.1-.1Zm.35-.75v0Zm-3.21-.36s0,0,0,.1-.12-.05,0-.05Zm-.2-.2v0ZM93,3.6s-.05,0-.05.1.1,0,.1-.1Zm2.86-.55c-.32.2-.76.13-1.11.27s-.83.6-1.05.6c-.06,0-.1-.06-.1,0s-.75,1-.75.85c0,.24-.11.56-.4.56,0,0,.07.1.15.1a1.65,1.65,0,0,0-.13,1.15c0,.08.08.11.08.2s-.12.26,0,.26c-.08.1-.25.7-.15.7s0,.4,0,.4-.16.2,0,.2c0,.36,0,.84.56.62a5.55,5.55,0,0,0,2.61-2.65,13,13,0,0,0,.57-1.62c0-.13,0-.22.12-.22a5.06,5.06,0,0,1-.06-.69Zm.5-.86.21.05c.13,0,.55,0,.55.15,0,0,0,0,0-.1s.15,0,.15-.1.15.08.15.15.11-.1.2-.1a1.7,1.7,0,0,0,.68.35,4.18,4.18,0,0,1,.74.53l.36.25s.11.13,0,.13l.2,0c0,.09,0,.15-.1.15l.3.16a4.07,4.07,0,0,1,.9,2.05,2,2,0,0,1,.06.43l.09.27c-.07,0-.2,0-.2,0h.1s0,.1-.1.1,0,.15-.1.15c.08.12.21.61,0,.61l.15.05-.1.2v.3s0,0,0,.1c-.09-.09-.1-.09-.1-.15a2.92,2.92,0,0,0,0,.5s-.08,0-.15,0c0,.16-.08.4-.2.4,0,.07.07.2.15.2-.08,0-.3,0-.3-.1-.07.07-.14.2-.25.2l.5.05a6.5,6.5,0,0,1-1.15.82c-.17,0-.17-.26-.31-.26,0,.44-.27.4-.48.61-.06,0,0,.14-.12.14a.62.62,0,0,0-.35-.15c0,.06.12.1,0,.1l-.15,0c0-.12.09-.4.25-.4s.1.08.1,0c.17-.4.66-.58.93-.93a4.18,4.18,0,0,0,.91-2.94A2.23,2.23,0,0,0,99.62,5C99,4.2,98.38,3.16,97.25,3c-.09,0-.34,0-.34,0s0,0-.1,0a9,9,0,0,0,.35.9c-.18.56-.07,1.19-.41,1.69,0,0-.07.07,0,.07s.07.2,0,.2-.4.55-.3.55a.12.12,0,0,1-.11,0,.91.91,0,0,1-.28.81.57.57,0,0,1-.37.1v.1c.07,0,.15,0,.15.05s-.13.1-.2.1.14.2,0,.2-.15.4-.25.4l-.15,0v.1a3.62,3.62,0,0,0-.4.55c-.32.15-.45.35-.81.35.06.08.11.08.11.16-.37,0-.57.19-.86.33a1.9,1.9,0,0,1-1.06.11c-.07,0-.14,0-.14,0a1.63,1.63,0,0,1-.41-.42,2.32,2.32,0,0,1-.1-.59c0-.09-.15-.11-.15-.2a.87.87,0,0,0,.07-.4l.06-.7-.08-.61s.15-.14.15-.05c0-.11-.1-.26-.1-.4s.17-.7,0-.7l.15,0s0,0,0-.1h.1a3.41,3.41,0,0,1,0-.35c.06-.13,0-.26.06-.26s.22-.45.4-.45c0-.13.3-.51.3-.4.16-.26.85-1,1.1-1,0,0,0,0-.1,0s0,.05.1.05l.51-.4a1.33,1.33,0,0,1,.64-.25l.26.05c.07-.12.4-.16.4-.26s.1,0,.1.05h.1s-.05,0-.05-.1h.1c.12,0,.15,0,.15,0H96l0,.15c.07-.06.06-.15.15-.15s0,0,.1,0Z"/><path class="cls-1" d="M87.57,9.5c0,.07.05.15.15.15ZM83.4.46c.09,0,.58.45.6.45a11.33,11.33,0,0,1-.28,1.15,1.35,1.35,0,0,0-.14.55c0,.09.06.26.17.26a1.46,1.46,0,0,1,.91-.26c.09,0,.75-.24.75-.15a.94.94,0,0,1,.35.25.23.23,0,0,1,0,.29,10.17,10.17,0,0,1-2.19.57l-.25.05,0,.1.2-.05c0,.08-.4.49-.4.5a.47.47,0,0,1,0,.29L83,4.92c-.14.5-.19,1.06-.31,1.56a1.14,1.14,0,0,1-.15.45c0,.05,0,.05-.09.05.4,0,.75-.15,1.15-.15l.3,0a.68.68,0,0,1,.35-.1l.46-.15c.45-.17,1.05.09,1.55.06.06,0,.1,0,.1,0,.18.06.56.22.56.45.16,0,.17.15.25.15a1.46,1.46,0,0,1,.59.88c0,.07.11.05.11.13l0,.15s0-.05-.1-.05a1.78,1.78,0,0,1,.1.65c-.12,0-.06.41-.11.53l-.23.31V9.9h-.1V9.6l0,.1v.15l-.2,0c.07.1.07.15.15.15-.08.07-.73.7-.76.7s-.06-.15-.15-.15l-.16.29c-.19.18-1.29.52-1.29.66h-.1V11.3c-.08.08-.1.25-.2.25s-.2-.1-.2,0,0,.15-.11.15c-.43-.13-.44.2-.65.2,0-.11,0-.2-.1-.2s-.15.23-.15.31A1.33,1.33,0,0,0,83,11.9s-.15-.1-.15-.15-.3-.06-.3-.2a1.73,1.73,0,0,1,.7-.1c.17-.08,1.1-.38,1.1-.5a2.57,2.57,0,0,0,1.13-.47,2.69,2.69,0,0,0,1.74-2.24c-.11-.09-.13-.15-.2-.15l0-.25c-.07,0-.26-.12-.26-.2s.11,0,.11,0-.05,0-.11,0-.25-.18-.25-.1-.28-.21-.4-.21a1.68,1.68,0,0,0-.3-.15,2.3,2.3,0,0,1-.86.09l-1.51.44-.39,0c0,.07,0,.2-.1.2s0-.12,0,0l-.73.8c-.3.16-.75.12-.79-.3A4.14,4.14,0,0,1,81.63,7c.06-.35.17-.68.24-1a7.61,7.61,0,0,1,.21-.91A9.36,9.36,0,0,0,82.4,4l.1-.3h-.1a8.46,8.46,0,0,1-2.75,0,.47.47,0,0,1-.32-.45h.91c.18-.11.39,0,.6,0l.1,0,.6,0a10.84,10.84,0,0,1,1.16-.12c.12-.62.33-1.25.48-1.87A1.82,1.82,0,0,1,83.4.46Z"/><path class="cls-1" d="M69.57,9.43l-.06.1.1.05Zm3-1c.1,0,.35.12.34.26.06,0,.11,0,.11-.09a12.5,12.5,0,0,1,1.52,1l.1-.05a2.6,2.6,0,0,1,1,.08l.85,0c.12,0,.56,0,.55.13s-.17.09,0,.09.19.12.19.21c0-.09-.11-.25,0-.25s0,.36.14.36c-.19.06-1.22.25-1.21,0-.07,0-.41.17-.4,0-.82.35-3-.73-3.24-1.42,0-.07,0-.21-.06-.22Zm-2.64-.61v0Zm.51-1.49,0,.1s0,0,.1,0Zm.28-.59c0,.06.08.16,0,.15Zm6.14-.26s0,0,0,.1-.11-.06,0,0Zm-2.54-.7c.52.16,1.2,0,1.75.15l.42.17c.15.1.22.27.42.28l0,.1a1.9,1.9,0,0,1-1,.06l-.51,0-.65,0a6.9,6.9,0,0,1-1.11.16c-.08,0-.29-.13-.3-.05l-.25,0a.93.93,0,0,1-.14-.36A1.52,1.52,0,0,1,74,4.83l.25,0ZM71.05.84c.46.08.82.27.75.79L71.69,2c0,.15-.07.8-.21.8l0,.1c.46-.09,1-.36,1.31.21,0,.07.13.12.13.2-.36,0-1.75.32-1.86.64l-.25,1.22a.38.38,0,0,1-.28.21h.25v.25l-.09-.16a1.07,1.07,0,0,0-.15.36l0,.19c-.08.09,0,.3-.06.3s-.31.24-.21.24,0,0,0,.1l.15,0c0,.05-.11.2,0,.2l-.06.4c-.12,0-.2,0-.21.09.1-.09.09-.1.16-.09s0,0,0,.1-.36.2-.36.34h.1a.12.12,0,0,1,0,.1c-.16.14-.18.58-.19.8H69.7c.07.09.07.2.15.21s-.14.14-.06.14-.05,0-.05.1l.09.11c-.07,0-.1,0-.1-.06s-.1,0-.09-.1c0,.22.13.86-.19.85l.2.1-.05.1c0-.07,0-.1-.1-.1-.09.43.18,1.07-.43,1.09-.07,0-.17,0-.17.09a1.12,1.12,0,0,1-.4-.38c-.19-.38.26-1.34.33-1.74,0-.06,0-.09.06-.09s.07-.1,0-.1c.26-1,.55-2.1.85-3.13A7.71,7.71,0,0,0,70,4.52c0-.12,0-.5.15-.5V3.87c-.07,0-.09,0-.1,0a1.83,1.83,0,0,0-.66.11,4.4,4.4,0,0,1-1.4.06c-.07,0-.06.09-.06.15s-.1,0-.1,0c-.15-.06-.45-.09-.44-.32-.06-.07.14-.25.21-.24h.25a1.62,1.62,0,0,1,.61-.07c.07,0,.25,0,.25-.14a2,2,0,0,0,.76-.06,3.31,3.31,0,0,1,.71,0c.36-.24.64-1.4.7-1.83,0-.07,0-.15.08-.15s-.09-.1,0-.1Z"/><path class="cls-1" d="M58.66,10.24c.06,0,.1,0,.1.1Zm-.35-1.46h.1S58.36,8.84,58.31,8.78ZM60,.9c1,.06.86.61.63,1.36-.09.26-.12.57-.19.84l-.14.36s.09.1,0,.1,0,.25-.1.25c.2.11,1.26.39,1.26.6.33,0,.6.37.19.42a1.25,1.25,0,0,1-.55-.1A4.84,4.84,0,0,0,60,4.56a3.65,3.65,0,0,1-.26,1.2l-.22,1.15.08.31a3.33,3.33,0,0,1,1.5,0l.46.25c-.06,0-.16,0-.16,0s.11.08.11.15h-.11a4.76,4.76,0,0,1-.55.1,4.07,4.07,0,0,1-1.45.1c-.11,1.68-.27,3.12,1.85,3.12l.74-.33c.46-.26,1.52-1.17,1.52-1.73,0-.1.11-.4.05-.4a1.87,1.87,0,0,0,0-.94,4,4,0,0,1-.26-.78c0-.07,0-.14,0-.14a.32.32,0,0,0,.25.1s-.14.15,0,.15.15.09.15.15l.11.05c0-.07,0-.2.05-.2l.52.57a2.25,2.25,0,0,1,.19,1.44c0,.09,0,.3-.11.3.07.36-.3,1-.7,1,.06.51-1.11.91-1.11,1.2h-.15v-.25l-.17.24c-.29.22-2.19.12-2.19-.29-.12,0-.4,0-.4-.15a.53.53,0,0,1-.54-.26l0-.09c-.65,0-.75-.86-.81-.86a.12.12,0,0,0,.05-.1c0-.07,0-.15,0-.15v-.1s-.13.1-.2.1a1.71,1.71,0,0,0,0-1c0-.21,0-.59-.06-.76-.21-.34-1.45-.47-1.55-.92l0-.23.11-.05a5.72,5.72,0,0,0,.59.17l1,.43V7a2.4,2.4,0,0,0,.06-.4,5.72,5.72,0,0,0,.14-1,.44.44,0,0,0,.1-.36c.07,0,.12-.1.2-.1-.06-.21.09-.45,0-.66A2.75,2.75,0,0,0,58,4.24c-.11,0-.5-.28-.56-.28s.25-.31.25-.2.3-.06.3-.15.15.09.15,0A5.83,5.83,0,0,0,59,3.7c.51-.05.44-1.23.6-1.61,0-.07.18-.34.12-.34A3.54,3.54,0,0,1,60,.9Z"/><path class="cls-1" d="M45.31,2.35a2,2,0,0,1,.61.29A4.79,4.79,0,0,1,47,4.44c0,.09.08.34.08.27s.1,0,.1.1.42.8.6.8a3.43,3.43,0,0,1,1-.77c.38-.26,2.54-1.93,2.71-.73,0,.07,0,.15,0,.15l-.4.09-.3-.09c0,.06.13.15.05.15l-1.36,1s-.1-.21-.1-.1a.81.81,0,0,1-.7.4c0,.15,0,.36-.15.36s0,0-.1,0-.11.25-.26.25c0,.17-.2.28-.2.45h-.4a.42.42,0,0,1-.4.35c0,.07.16.15,0,.15-.13.18-.35.37-.35.6-.08,0-.08-.1-.15-.1a3,3,0,0,1-.2.9A1.21,1.21,0,0,0,47.19,10a5.07,5.07,0,0,0,2.39.48c.07,0,.1,0,.1,0s0,0,.1,0v-.09l.3,0,.8-.27c.4-.13.74-.44,1.15-.12.09.07.19.13.2.25s0,.14-.09.14,0,.13,0,0-.1.09-.1,0c-.14.16-.19.16-.4.16a.75.75,0,0,1-.7.3,6,6,0,0,1-.66.2l.05-.1-.1-.05v.2c0-.07,0-.15-.1-.15a1.63,1.63,0,0,1-.7,0,5.38,5.38,0,0,1-.8,0l-.76-.28c-.1,0-.65-.12-.65-.15a.27.27,0,0,1-.15-.25h-.1c-.19.19-.8-.28-.8-.51l0,.15c-.09-.11-.22-.45-.26-.45-.26-.12-.27-.77-.26-1,0-.07.11-.33.11-.21-.08-.48.52-1.32.84-1.67.14-.15.32-.26.36-.46A3.57,3.57,0,0,0,46.44,5c0-.08-.12-.17-.12-.27-.24-.48-.43-1-.71-1.45-.1-.17-.4-.45-.4-.66A.76.76,0,0,1,45.31,2.35ZM51.64,2l.53.1c.19.08.93.64.93.85.14,0,.5.28.5.51a1.09,1.09,0,0,1-.89,0c-.29-.14-1.27-1-1.27-1.33ZM53,1.1l.52.15C53.82,1.37,55,2.5,55,2.8c-.78.31-1.13-.35-1.54-.76-.17-.17-.54-.37-.6-.61A.3.3,0,0,1,53,1.1Z"/><rect class="cls-3" x="101.4" y="-89.4" width="54.9" height="257.71" transform="translate(168.31 -89.4) rotate(90)"/><path d="M173.55,32.25c-.25-.75-.63-1.95-.78-2.39l0-.13a.87.87,0,0,0-.87-.62h-2.68a.52.52,0,0,0-.48.2.54.54,0,0,0-.07.5c.07.21.61,1.83.91,2.66a.93.93,0,0,0,1,.6h2.39c.38,0,.53-.11.61-.22a.61.61,0,0,0,0-.6"/><path d="M167.45,29.71a.85.85,0,0,0-.86-.59h-2.68a.51.51,0,0,0-.54.7c.06.22.61,1.84.9,2.65a.92.92,0,0,0,1,.61h2.4a.69.69,0,0,0,.6-.22.63.63,0,0,0,0-.61c-.29-.88-.8-2.38-.85-2.54"/><path class="cls-4" d="M64.78,51a3.25,3.25,0,1,1-3.25-3.24A3.24,3.24,0,0,1,64.78,51"/><path class="cls-4" d="M66.72,27.89a2.4,2.4,0,0,0-1.42-3.25A2.78,2.78,0,0,0,62,26.12c-1.11,2-6.91,13-7.88,14.79s-2.2,4.42-3.21,4-2-4.36-2.51-5.5c-.83-2-2.53-4.43-5.35-3.81-2.17.46-3.39,2.16-5.35,5.91a35.92,35.92,0,0,1-2.72,4.75c-2,2.74-3.14-1.76-3.8-4.08-.89-3.13-2.52-7.55-6.06-7.54-2,0-4.09,1.16-6.71,5.41-1.53,2.48-5.12,9.42-5.65,10.66A2.43,2.43,0,0,0,14,54a2.67,2.67,0,0,0,3.38-1.22c2.52-3.91,3.21-5.44,4.5-7.24s3.25-3.63,4.69,1c.9,2.89,2.48,7.64,6.72,7.67,2.56,0,5.21-2.19,6.44-4.29,1.4-2.38,1.76-3.65,2.82-4.8.55-.59,1.36-.8,2.12.9s2.27,6.84,5,8c3.85,1.6,7.47-6.19,8.72-8.67,1-2,7.94-16.39,8.38-17.44"/><path d="M98,30.1a1.16,1.16,0,0,0-.85-.29h0l-23.4,0a.79.79,0,0,0-.61.27.87.87,0,0,0-.2.56v3a.81.81,0,0,0,.81.79h.13l17.06,0h.69c.5,0,.64.09.75.24.26.34,0,.88,0,1a14.38,14.38,0,0,1-7.14,9.12l-.2.1-.14-.18c-.87-1.19-1.52-2-2.28-3l-.11-.15a1.44,1.44,0,0,0-1-.64h-4a.55.55,0,0,0-.55.34.7.7,0,0,0,.06.62A90,90,0,0,1,84.8,53.69a1,1,0,0,0,.88.53H90a.52.52,0,0,0,.48-.31.59.59,0,0,0,0-.58,33.35,33.35,0,0,0-2.42-4l-.14-.21.21-.15c5-3.52,9.69-8,10.13-18.15A1,1,0,0,0,98,30.1"/><path d="M122.07,29.76a.79.79,0,0,0-.64-.27l-3.88,0a1.11,1.11,0,0,0-.93.61C114.4,35.21,108,39,99.1,40.52c-.57.12-.85.45-.86.84v3.06a.73.73,0,0,0,.26.59.93.93,0,0,0,.71.22,34.23,34.23,0,0,0,10.19-2.57l.37-.17V53.36a.81.81,0,0,0,.84.81H114a.81.81,0,0,0,.77-.76l0-13.26.11-.07a19.43,19.43,0,0,0,7.37-9.67.81.81,0,0,0-.14-.65"/><path d="M140,40.36l0-.25,7.48,0a.81.81,0,0,0,.57-.25.83.83,0,0,0,.23-.55V36.35a.8.8,0,0,0-.21-.56.78.78,0,0,0-.61-.26H140V30.27a.81.81,0,0,0-.85-.81h-3.3a.77.77,0,0,0-.59.26.81.81,0,0,0-.22.55v5.27H123.85a.8.8,0,0,0-.84.84v3a.81.81,0,0,0,.83.79H124l11.08,0,0,.27c-.39,6.42-3.47,8.25-9.25,9.44-.5.12-.79.36-.79.8v3a.69.69,0,0,0,.26.55.9.9,0,0,0,.61.2c9.69-1.34,13.64-5.4,14.13-14.07"/><path d="M173.16,35.72a.77.77,0,0,0-.52-.22h-.14l-16.23,0V30.27a.83.83,0,0,0-.23-.59.84.84,0,0,0-.63-.25h-3.12a.81.81,0,0,0-.81.81l0,17.62c0,4.38,1.73,6.22,6.54,6.22h.39l14.62,0a.82.82,0,0,0,.76-.79v-3a.81.81,0,0,0-.8-.82H159.62A4.3,4.3,0,0,1,157,49c-.65-.54-.72-1.33-.7-2.55V40.09l16.32,0a.81.81,0,0,0,.82-.82V36.3a.74.74,0,0,0-.25-.58"/><path class="cls-5" d="M185.6,53.13a1.13,1.13,0,0,1-1.23,1.3,1.14,1.14,0,0,1-1.27-1.3V44.72a1.44,1.44,0,0,1-1,.54,1.54,1.54,0,0,1-1.38-1.57,2.32,2.32,0,0,1,.66-1.45,19.19,19.19,0,0,0,3-6.33c.17-.76.32-1.32,1.26-1.32.16,0,1.37,0,1.37,1.09a17.15,17.15,0,0,1-1.37,4.55Zm2.1-6.84a1.1,1.1,0,0,1-1.28-1.19c0-1,.67-1.2,1.28-1.2h4.63V42.29h-2.22c-1.67,0-2.41-.64-2.41-2.44V37.61c0-1.87.8-2.42,2.41-2.42h7c1.54,0,2.41.51,2.41,2.42v2.24c0,1.85-.78,2.44-2.41,2.44h-2.29V43.9h4.59a1.11,1.11,0,0,1,1.28,1.2c0,1.07-.76,1.19-1.28,1.19h-3.61a19.17,19.17,0,0,0,3.15,3.59c1.66,1.34,1.72,1.39,1.72,1.87a1.51,1.51,0,0,1-1.36,1.46c-.42,0-.82-.23-1.66-1.11a23.55,23.55,0,0,1-2.83-3.62v4.63a1.1,1.1,0,0,1-1.18,1.28c-.94,0-1.28-.42-1.28-1.28V48.66c-1.42,2-3.94,4.57-5,4.57a1.33,1.33,0,0,1-.44-2.55,15.24,15.24,0,0,0,4.49-4.39Zm9.21-8.2a.63.63,0,0,0-.71-.71H191a.63.63,0,0,0-.72.71v1.32a.64.64,0,0,0,.72.72h5.23a.63.63,0,0,0,.71-.72Z"/><path class="cls-5" d="M217.93,38.09a26.4,26.4,0,0,1,2.79,1.83c1.26.92,1.53,1.21,1.53,1.72A1.48,1.48,0,0,1,220.87,43a1.46,1.46,0,0,1-.86-.34c-.19-.14-1.09-.9-1.32-1.07-.67,0-2.11.19-5.21.34-2.39.12-8.29.31-8.45.31-.57,0-1.34,0-1.34-1.17s.77-1.05,1.13-1.07,2.26,0,2.68,0c.65-.9,1-1.45,1.28-1.89h-4.53c-.75,0-1.11-.32-1.11-1.15a1,1,0,0,1,1.11-1h7.4v-.48c0-.72.3-1,1.54-1s1.24.5,1.24,1v.48h7.42c.78,0,1.09.31,1.09,1.15a.94.94,0,0,1-1.09,1ZM208.3,50.55v2.58a1.13,1.13,0,0,1-1.26,1.3c-1.13,0-1.39-.52-1.39-1.3V45.05c0-1.72.76-2.26,2.3-2.26h10.21c1.53,0,2.29.52,2.29,2.26V52a2.2,2.2,0,0,1-.78,2c-.37.23-.69.33-2.9.33-1.86,0-2-.06-2.22-.2a1.12,1.12,0,0,1-.46-1,1,1,0,0,1,1.15-1.13l1.89,0c.38,0,.67,0,.67-.52v-.86Zm0-4.72h9.5v-.48c0-.32-.14-.51-.5-.51h-8.49a.45.45,0,0,0-.51.51Zm9.5,1.85h-9.5v1h9.5Zm-6.06-9.59-1.3,1.85c1.13,0,2.29,0,4.37-.13l1.32-.06a1,1,0,0,1-.59-.89,1.11,1.11,0,0,1,.31-.77Z"/><path class="cls-5" d="M244,40a1.16,1.16,0,0,1,1.3,1.32c0,1.26-.84,1.32-1.3,1.32h-7.21v8.44h6.06a1.13,1.13,0,0,1,1.29,1.28c0,1.25-.81,1.32-1.29,1.32H227.87c-.33,0-1.28,0-1.28-1.3s.8-1.3,1.28-1.3H234V42.64H226.8c-.38,0-1.3,0-1.3-1.3s.8-1.34,1.3-1.34H234V35.78c0-.42,0-1.3,1.32-1.3,1.05,0,1.47.36,1.47,1.3V40Z"/></g></g></svg>